<?xml version="1.0" encoding="utf-8"?>
<!-- Generator: Adobe Illustrator 27.0.0, SVG Export Plug-In . SVG Version: 6.00 Build 0)  -->
<svg version="1.1" id="图层_1" xmlns="http://www.w3.org/2000/svg" xmlns:xlink="http://www.w3.org/1999/xlink" x="0px" y="0px"
	 viewBox="0 0 128.9 136.7" style="enable-background:new 0 0 128.9 136.7;" xml:space="preserve">
<style type="text/css">
	.st0{fill:#70B437;}
	.st1{fill:#FFFFFF;}
	.st2{fill:#A1CD68;}
	.st3{fill:#040000;}
</style>
<g>
	<polygon class="st0" points="65.4,103 105.5,81.8 106.2,72.8 85.8,58.4 76.1,43.3 55.6,43.7 50.5,48.1 46.4,52.4 36.8,63.2 
		23.5,71.5 31.9,81.2 45.3,93.2 61.6,103.5 	"/>
	<polygon class="st1" points="57.5,67.3 61.1,68.8 69.9,68.5 71.9,67.1 69.7,64.5 65.3,64.8 61.7,64.2 57.5,67 	"/>
	<polygon class="st2" points="21.8,72.7 16.2,63.9 8,53.5 5.8,49.1 19.5,43.3 40.7,34.5 86.5,33.8 93.7,37.7 115.1,45.4 123.7,53.9 
		109.7,72.7 100.9,70.1 84.6,56 74,44 53.2,42.8 44.2,58.7 	"/>
	<g>
		<path class="st3" d="M76,70.6c0,0-2.8,3.1-4.1,3.1c-1.3,0-3.4-1.9-4.7-2.3c-1.3-0.4-4.7-0.4-5.4,0.2c-0.7,0.6-3.8,2.3-4.4,2.3
			c-0.7,0-3.1-3.5-3.1-3.5c-0.4-0.5,1.3,0.1,1.3,0.1s1.4,0.9,1.8,0.9c0.4,0,3.9-0.4,4.2-1c0.3-0.6,4.5-0.5,5.9-0.1s4,1.4,4.7,1.3
			C72.9,71.5,76,70.6,76,70.6z"/>
		<g>
			<path class="st3" d="M79.2,53.8c-0.5-0.7-2.9-0.8-4.6,0.1c-1.7,0.9-3.9,2.4-4.8,2.1c-0.9-0.3-2.3-0.5-2.8-1.2
				c-0.6-0.7-1.1-1.4-1.7-1.4c-0.7,0-2.1,2.2-3,2.3c-0.9,0-2.9-0.4-4.6-1.5c-1.7-1.1-3.7-2.2-4.7-1.8c-1,0.4-2.1,1.1-2.1,1.1l2,1.4
				c0,0,2.8,2.3,3.6,2.5c0.9,0.2,1.5,0.7,2,0.8c0.6,0.1,1.6-0.8,2.1-0.5c0.5,0.3-1.1,1.7-1.1,1.7s-2.6,2.8-2.7,3.3
				c-0.1,0.5-0.2,1.2,0,1.5c0.2,0.3,2.9-3.6,3.4-3.3c0.5,0.4,1.7,1.7,1.7,2c0,0.3-1.3,0.4-2.2,0.8c-0.9,0.5-3.6,3.4-3.8,4.7
				c-0.1,0.7,4.4,0.6,9.3,0.6c4.4,0,9.3-0.1,9.2-0.4c-0.3-0.7-2.5-4.6-6-5.3c0,0-0.3-0.1,0.5-1c0.8-0.9,1-2.2,1.5-1.7
				c0.4,0.6,2.9,3.1,3.1,3.8c0.2,0.7,0.5-1.3-0.1-2.1c-0.6-0.7-3.1-3.3-3.1-3.3s-1.2-1.2-0.2-1c1,0.2,1.9,0.5,2.9-0.1
				c1-0.6,3.7-0.9,3.9-1.5c0.1-0.6,0.3-1.2,0.5-1.6C77.7,54.5,79.3,54.2,79.2,53.8z M69.9,65c0.5,0.4-0.3,1-0.3,1s-1.9-0.3-2.2,0.2
				c-0.3,0.5,1,0.7,1,0.7s2.5-0.1,2.8,0.1c0.2,0.2-0.4,0.7-1,0.9c-0.6,0.2-3.8,0.3-3.8,0.3l-4.8,0c0,0-2.5-0.4-3-1.2
				c-0.5-0.8,0.9-0.3,0.9-0.3s3.5,0.4,3.7,0.1c0.2-0.3,0.1-0.4-0.4-0.6c-0.5-0.2-2.6-0.1-2.8-0.5c-0.2-0.4,1.2-0.5,1.2-0.5
				c0.8,0.2,5.1,0.5,5.9,0.2S69.4,64.5,69.9,65z M67.9,61.1c-0.4,0.5-2,1.4-2.7,1.6c-0.7,0.1-1.9-0.7-1.9-1
				c-0.1-0.3-2.3-1.9-2.3-1.9c-0.2-0.2,0.1-1.2,0.5-1.5c0.4-0.3,1.4,0.2,1.9,0.4c0.5,0.1,0.3-0.5,0-0.7c-0.3-0.3-0.2-1.2,0.4-1.8
				c0.6-0.6,1.9-0.7,2.9,0.1c1,0.7,0.4,1.4,0.5,1.8c0.1,0.4,0.2,0.4,0.9,0.4c0.7,0,1.4,1.3,1.4,1.6C69.4,60.4,68.3,60.6,67.9,61.1z"
				/>
			<path class="st3" d="M126.4,50c-3.8-2.8-25.3-13.7-28-14.6c0,0-0.9-0.4-1.7-0.2c-0.8,0.3-3.3,1-3.6,0.6c-0.3-0.4,0-1,0-1
				s1.7,0.1,2-0.2c0.3-0.3-13.5-3.9-16.4-3.9c-3-0.1-30.8-0.8-39,1.4c-6.4,1.5-20.5,5.7-22.4,7.1c-1.9,1.4,0.4,2.1,0.4,2.1l1,0.8
				l-0.3,1.2c0,0-4.4-0.4-8,0.8c-3.6,1.2-8,3.4-8.9,4.5C0.5,49.6,3.2,54,3.2,54l6.3,9.2c0,0,1,2,1.3,1.8c0.4-0.1,1.5-0.4,1.6-0.9
				c0.1-0.5-0.1-0.7,0.2-0.8c0.3-0.1,2,0,2,0s0.1,1.6-0.4,2c-0.6,0.4-2.8,0.3-2.8,0.8c0,0.6,4.7,6.9,6,8.3
				c1.3,1.4,11.8,12.4,12.7,12.7c0.9,0.4,2.6,0,2.9,0.5c0.4,0.4,0.8,0.7,1.4,0.4c0.5-0.3,1-0.8,1.4-0.6c0.4,0.2,0.3,4.3,1,4.9
				s11.5,8.3,16,10.3s10.4,5,10.4,5s0.6,0.2,1.3,0.3c2.6,0.1,18.8-8.5,24.3-12.1c2.9-1.9,10.7-7.4,17-13.1
				c5.8-5.3,10.2-10.7,10.8-11.9c1.2-2.5-0.3-2.6,0.3-2.9c0.6-0.4,2.1,0.2,2.8-0.8c0.7-0.9,8.3-12.8,8.5-14.3
				C128.3,51.5,128.8,51.4,126.4,50z M33.2,85.9c0,0.1-2.2-0.1-2.2-0.1l-0.2-0.7l-0.5-0.3l0.2-2.1l1.4,0l0.5,0.5l1.1,1
				C33.5,84.2,33.2,85.8,33.2,85.9z M62.8,92.9c-0.7,0.1-3.1-0.2-3.8,0c-0.8,0.2-1.8,0.2-1.8,0.2s1.3,1.2,2.3,1.3
				c1,0.2,3.3,0.4,3.3,0.4s0.1,1.9-0.1,2.3c-0.4,0.5-0.3,1.4-0.3,1.4s-0.2,0.9-1.2,0.3c-1-0.5-15.2-7.6-16.7-9.1
				c-1.5-1.5-8.5-6-11.3-8.7c-2.8-2.7-8-7.8-8-7.8S24.4,72.8,26,72c1.6-0.8,4.9-2.2,5.7-2.2s1.8-1.3,1.8-1.3s3.6-3.9,6.2-4.9
				c2.6-1,3.6-1.5,3.8-1.2c0.3,0.3,0.3,3.4,0.3,3.4s1.5,7.5,0.8,8c0,0,0.5,0.6-0.5,0.6c-1,0.1-5.4,0.1-5.4,0.1l-1.9-0.9
				c0,0-0.7-1.2-1.5-1.2c-0.8,0-3,0-3,0.2c0,0.3,2.3,1.6,3.1,2.2c0.9,0.6,1.1,1.9,1.8,2c0.7,0.1,5,0.8,6.5,1
				c1.5,0.2,10.7,3,14.4,5.7c3.6,2.7,4.6,3.4,4.6,3.4S63.6,92.8,62.8,92.9z M57.8,76.1c0,0-10.2-11-10.8-11.7
				c-0.7-0.7,0.4-1.5,0.4-2.6c0-1.1,0-1.7,0.5-1.7c0.6,0,3.6,1.7,3.6,1.7l0.4,4.3l0.4,0.5l1.2-5.8c0,0-0.8-0.4-2.7-1.4
				c-1.9-1-2.2-2.9-1.8-5.2c0.4-2.3,1.5-2.9,2.5-4.1c0.9-0.9,0.7-2.4,0.7-2.4s-0.1-0.1,1.6-0.1c1.7,0,3.8,2.5,4.4,2.8
				c0.7,0.3,0.1-2.3,0.7-2.2c0.5,0.1,1.6,2.4,2,3.2c0.4,0.8,1.7,2.3,1.7,1.2c0-1.1,0.3-1.9,0.3-1.9s0.7,0,1.3,0c0.7,0,0.5-1.6,1-2.5
				c0.5-0.9,0.9-0.7,1.2-0.1c0.4,0.6,1.2,2.1,1.6,2.3c0.3,0.2,0.6-0.5,0.5-1.2c-0.1-0.7,0-1.3,0.5-0.7c0.5,0.6,3.2,1.8,4.7,2.4
				c1.4,0.6,1.6-0.3,1.8-1.2c0.2-0.9,1.2-0.3,2.4,0.6s3.5,4.5,3.6,6.4c0,1.9-3.2,3.9-4,4c-0.7,0-0.9,0-0.9,0.7
				c0,0.7,1.3,5.8,1.3,5.8l0.5,0.1c0,0,0-4.4,0-4.9s1.6-1.1,2.8-1.6C82.7,60.3,83,61,83,61s0.2,4,0.2,4.5c0,0.5-8.5,7.8-8.5,7.8
				s-2.4,2.4-4,2.9S57.8,76.1,57.8,76.1z M101.5,78.6c-1.5,1.5-13,10.2-15,11.6L67,99.1c0,0-1.4-6.3-0.5-6.9
				c0.8-0.6,6.9-2.2,7.8-3.4c0.9-1.2-3.1-1.5-4-1s-1.3,1.2-2.4,1.3c-1.1,0.1-1.4-0.5-1.1-1.6c0.3-1.1,0.2-1.5,1.8-2.4
				c1.6-0.9,6.7-3.1,6.7-3.1S79,81,80,80.3c0.6-0.5,1-0.9,1.9-1.2c0,0,4.9-0.9,6.5-0.8c0.8,0,3,0.1,3.4-0.2c0.4-0.4,1.8-1.7,2.6-2.4
				c0.8-0.7,1.4-1.2,2.2-1.2c0.8,0-1.3-0.7-1.3-0.7s-0.8-0.5-2,0.3c-1.2,0.8-1.2,1.9-2.1,1.9c-0.9-0.1-2.7-0.9-3.6-0.9
				c-0.9,0-2.6,0-2.6,0l0.2-1.5c0,0,1.2-8.3,1.3-9.2c0.1-0.9-0.1-0.8,0.4-1c0.5-0.2,2.5,0.6,4.7,1.8c2.2,1.2,5.3,4.8,5.7,5.5
				c0.4,0.7,1.5,0.7,2.8,0.9c1.3,0.2,3.4,1.2,4.4,2.2C105.4,74.6,102.9,77.1,101.5,78.6z M121,53.9c0,0-1.3,2.2-4.5,6.6
				c-3.2,4.4-8.2,11.5-8.2,11.5c-3.4-3.6-9.5-5.4-9.5-5.4s-1.2-1.7-3.4-5.3c-2.3-3.6-7.8-6-9-6.6c-1.2-0.6-0.9-3.8-1.2-4.3
				c-0.3-0.5-2,0.1-3,0.1c-1,0-0.5-0.6-0.7-2.5c-0.2-2-1.2-4.2-1.9-6.9c-0.8-1.9-7.6-3-7.6-3l-6.7-0.6L63.4,37l-1.1-0.8l-0.6,1
				l-4.8,0.3c0,0-4.7,2.3-5.7,3.8c-1,1.5-0.8,4.8-0.8,4.8s-1.8,2.4-1.9,3.2c0,0.8-1.8-0.2-3.2,0.3c-1.3,0.4-0.9,2.6-0.8,3.8
				c0.1,1.2-3.3,2-5.8,3.3c-2.5,1.2-6.4,7.4-6.4,7.4s-0.6,1.9-2.4,1.9c-1.8,0-6.6,3.2-8,3.8c-1.4,0.7-0.9-0.9-2.3-2.5
				c-1.4-1.5-9.9-14.4-11.1-15.8s1.2-2.6,1.2-2.6c5.7-3.8,20.4-9.9,29.2-12.1c8.8-2.3,21.9-2.4,29-2.4s19.5,2.3,19.5,2.3
				c7.9,1.7,25.1,10.4,32.3,14.3C121.6,51.9,121,53.9,121,53.9z"/>
		</g>
	</g>
</g>
</svg>
