<?xml version="1.0" encoding="utf-8"?>
<!-- Generator: Adobe Illustrator 27.0.0, SVG Export Plug-In . SVG Version: 6.00 Build 0)  -->
<svg version="1.1"
	 id="svg3207" xmlns:rdf="http://www.w3.org/1999/02/22-rdf-syntax-ns#" xmlns:cc="http://creativecommons.org/ns#" xmlns:dc="http://purl.org/dc/elements/1.1/" xmlns:svg="http://www.w3.org/2000/svg"
	 xmlns="http://www.w3.org/2000/svg" xmlns:xlink="http://www.w3.org/1999/xlink" x="0px" y="0px" viewBox="0 0 1192.1 293.4"
	 style="enable-background:new 0 0 1192.1 293.4;" xml:space="preserve">
<style type="text/css">
	.st0{fill-rule:evenodd;clip-rule:evenodd;fill:#393637;stroke:#393637;stroke-width:0.5258;stroke-miterlimit:2.1033;}
</style>
<g transform="translate(49.531982421875 0)  rotate(0)">
	<g>
		<path id="文本_1_00000090276685340971950590000018309421919637296534_" class="st0" d="M-6.2,276c-6.6,0-12.3-3.3-12.3-3.3
			c-5.7-3.3-9-8.9-9-8.9c-3.3-5.7-3.3-12.3-3.3-12.3v-51.1c0-6.6,3.3-12.2,3.3-12.2c3.3-5.7,9-9,9-9c5.7-3.3,12.3-3.3,12.3-3.3H4.1
			c6.6,0,12.3,3.3,12.3,3.3c5.6,3.3,8.9,9,8.9,9c3.3,5.6,3.3,12.2,3.3,12.2v3.1H17.4v-3.1c0-5.5-3.9-9.4-3.9-9.4
			c-3.8-3.8-9.3-3.8-9.3-3.8H-6.2c-5.6,0-9.4,3.8-9.4,3.8c-3.8,3.9-3.8,9.4-3.8,9.4v51.1c0,5.5,3.8,9.4,3.8,9.4
			c3.8,3.9,9.4,3.9,9.4,3.9H4.1c5.5,0,9.3-3.9,9.3-3.9c3.9-3.9,3.9-9.4,3.9-9.4V230H-6.2v-11.3h34.8v32.8c0,6.6-3.3,12.3-3.3,12.3
			c-3.3,5.6-8.9,8.9-8.9,8.9C10.7,276,4.1,276,4.1,276H-6.2z M41.8,200.1H53v11.6c5.6-5.5,12.6-8.6,12.6-8.6c7-3,15-3,15-3v11.3
			c-7.5,0-13.8,3.7-13.8,3.7c-6.4,3.7-10.2,10.2-10.2,10.2c-3.7,6.4-3.7,13.9-3.7,13.9V276H41.8L41.8,200.1z M114.6,276
			c-6.6,0-12.3-3.3-12.3-3.3c-5.7-3.3-9-8.9-9-8.9c-3.3-5.7-3.3-12.3-3.3-12.3v-26.6c0-6.6,3.3-12.3,3.3-12.3c3.3-5.7,9-9,9-9
			c5.7-3.3,12.3-3.3,12.3-3.3h4c6.7,0,12.3,3.3,12.3,3.3c5.7,3.3,9,9,9,9c3.3,5.6,3.3,12.3,3.3,12.3v17.3h-42.2v9.3
			c0,5.5,3.9,9.4,3.9,9.4c3.9,3.9,9.5,3.9,9.5,3.9h4c5.6,0,9.4-3.9,9.4-3.9c3.8-3.9,3.8-9.4,3.8-9.4h11.4c0,6.6-3.3,12.3-3.3,12.3
			c-3.3,5.6-9,8.9-9,8.9c-5.6,3.3-12.3,3.3-12.3,3.3H114.6z M131.9,224.8c0-5.6-3.8-9.5-3.8-9.5c-3.8-3.8-9.4-3.8-9.4-3.8h-4
			c-5.6,0-9.5,3.8-9.5,3.8c-3.9,3.9-3.9,9.5-3.9,9.5v6.1h30.8V224.8z M179.5,276c-6.7,0-12.3-3.3-12.3-3.3c-5.7-3.3-9-8.9-9-8.9
			c-3.3-5.7-3.3-12.3-3.3-12.3v-26.6c0-6.6,3.3-12.3,3.3-12.3c3.3-5.7,9-9,9-9c5.6-3.3,12.3-3.3,12.3-3.3h3.9
			c6.8,0,12.4,3.3,12.4,3.3c5.6,3.3,8.9,9,8.9,9c3.3,5.6,3.3,12.3,3.3,12.3v17.3H166v9.3c0,5.5,3.9,9.4,3.9,9.4
			c3.8,3.9,9.5,3.9,9.5,3.9h3.9c5.7,0,9.5-3.9,9.5-3.9c3.8-3.9,3.8-9.4,3.8-9.4h11.3c0,6.6-3.3,12.3-3.3,12.3
			c-3.3,5.6-8.9,8.9-8.9,8.9c-5.6,3.3-12.4,3.3-12.4,3.3H179.5z M196.8,224.8c0-5.6-3.8-9.5-3.8-9.5c-3.8-3.8-9.5-3.8-9.5-3.8h-3.9
			c-5.7,0-9.5,3.8-9.5,3.8c-3.9,3.9-3.9,9.5-3.9,9.5v6.1h30.8V224.8z M219.6,200.1h11.3v9.8c5.9-9.8,16.4-9.8,16.4-9.8h1
			c6.7,0,12.4,3.3,12.4,3.3c5.6,3.3,8.9,9,8.9,9c3.3,5.6,3.3,12.3,3.3,12.3V276h-11.3v-51.2c0-5.6-3.9-9.5-3.9-9.5
			c-3.8-3.8-9.4-3.8-9.4-3.8h-4c-5.6,0-9.5,3.8-9.5,3.8c-3.8,3.9-3.8,9.5-3.8,9.5V276h-11.3L219.6,200.1z M338.2,276
			c-6.7,0-12.3-3.3-12.3-3.3c-5.7-3.3-9-8.9-9-8.9c-3.3-5.7-3.3-12.3-3.3-12.3v-51.1c0-6.6,3.3-12.2,3.3-12.2c3.3-5.7,9-9,9-9
			c5.6-3.3,12.3-3.3,12.3-3.3h10.2c6.6,0,12.3,3.3,12.3,3.3c5.7,3.3,9,9,9,9c3.2,5.6,3.2,12.2,3.2,12.2v3.1h-11.2v-3.1
			c0-5.5-3.9-9.4-3.9-9.4c-3.9-3.8-9.4-3.8-9.4-3.8h-10.2c-5.7,0-9.5,3.8-9.5,3.8c-3.8,3.9-3.8,9.4-3.8,9.4v51.1
			c0,5.5,3.8,9.4,3.8,9.4c3.8,3.9,9.5,3.9,9.5,3.9h10.2c5.5,0,9.4-3.9,9.4-3.9c3.9-3.9,3.9-9.4,3.9-9.4V230h-23.5v-11.3h34.7v32.8
			c0,6.6-3.2,12.3-3.2,12.3c-3.3,5.6-9,8.9-9,8.9c-5.7,3.3-12.3,3.3-12.3,3.3H338.2z M389.6,200.1h11.3V276h-11.3V200.1z
			 M389.6,173.5h11.3v14.3h-11.3V173.5z M439.8,276c-5.9,0-10.8-2.9-10.8-2.9c-5-2.9-7.9-7.9-7.9-7.9c-3-5-3-10.8-3-10.8v-5.1
			c0-5.6,2.8-10.4,2.8-10.4c2.8-4.7,7.6-7.5,7.6-7.5c4.8-2.7,10.3-2.7,10.3-2.7H452c4.3,0,8.2,1.9,8.2,1.9v-5.9
			c0-5.6-3.8-9.5-3.8-9.5c-3.8-3.8-9.5-3.8-9.5-3.8h-3.9c-5.6,0-9.4,3.8-9.4,3.8c-3.9,3.9-4,9.4-4,9.4h-11.3
			c0-6.6,3.4-12.2,3.4-12.2c3.4-5.7,9-9,9-9c5.6-3.3,12.3-3.3,12.3-3.3h3.9c6.8,0,12.4,3.3,12.4,3.3c5.6,3.3,8.9,9,8.9,9
			c3.3,5.6,3.3,12.3,3.3,12.3V276h-11.3v-11.2c0,2.1-3.1,4.7-3.1,4.7c-3,2.7-7.2,4.6-7.2,4.6c-4.1,2-7,2-7,2L439.8,276z
			 M432.4,261.7c3.1,3.1,7.4,3.1,7.4,3.1h3.9c4.6,0,8.3-2.2,8.3-2.2c3.8-2.2,6-6,6-6c2.2-3.8,2.2-8.2,2.2-8.2v-0.1
			c0-3.3-2.5-5.8-2.5-5.8c-2.4-2.5-5.7-2.5-5.7-2.5h-13.3c-3.9,0-6.6,2.7-6.6,2.7c-2.7,2.8-2.7,6.6-2.7,6.6v5.1
			C429.4,258.7,432.4,261.7,432.4,261.7z M483,200.1h11.3v9.8c5.9-9.8,16.4-9.8,16.4-9.8h1c6.7,0,12.4,3.3,12.4,3.3
			c5.6,3.3,8.9,9,8.9,9c3.3,5.6,3.3,12.3,3.3,12.3V276H525v-51.2c0-5.6-3.8-9.5-3.8-9.5c-3.8-3.8-9.4-3.8-9.4-3.8h-4
			c-5.6,0-9.5,3.8-9.5,3.8c-3.8,3.9-3.8,9.5-3.8,9.5V276H483L483,200.1z M583.7,276c-6.2,0-11.3-3-11.3-3c-5.2-3.1-8.2-8.2-8.2-8.2
			c-3-5.2-3-11.3-3-11.3v-42.1h-13.3v-11.3h13.3v-20.4h11.3v20.4h18.5v11.3h-18.5v39.5c0,3.6,1.9,6.8,1.9,6.8
			c1.9,3.2,5.1,5.1,5.1,5.1c3.2,2,6.9,2,6.9,2h4.6V276H583.7z"/>
		<path id="文本_1_00000115516147346092130110000016668561824871827374_" class="st0" d="M-29.3,130l48.4-5.3v20.7l-48.4,5.3
			L-29.3,130z M-9.4,7h19.8L-7.1,52.9l5.5,3.2L6,35.7h18.8L3.5,93h14.8v20.7h-45.2L-12.6,75L-31,64.6L-9.4,7z M21.8,129.4l37.7-21.9
			V77.4H22.8v-18h65v-7.9H32.6V35.1h55.1v-8.8H27.6v-18h81v49.3h8.7v19.8h-37v30.1l37.9,22v22.2l-37.9-22v22.8H59.6v-22.7
			l-37.7,21.9L21.8,129.4z M44,82.4l8.8,27.4H33.5l-9-27.4L44,82.4z M96.1,82.4h19.6l-9.4,27.4H86.9L96.1,82.4z M142.4,10.2h133.8
			v20.5h-113v16.4h102.4v63H163.2v18h113v20.5H142.4L142.4,10.2z M244.9,67.5h-81.7v22.5h81.7L244.9,67.5z M290.5,129.6
			c29.8-11.7,46.4-34.2,46.4-34.2c16.7-22.4,16.7-54.7,16.7-54.7l-0.1-34.2h22.2v34.2c0,32.3,16.6,54.7,16.6,54.7
			c16.7,22.5,46.3,34.2,46.3,34.2v23.9c-26.4-8.5-45.2-24.3-45.2-24.3c-18.8-15.8-28.8-37.1-28.8-37.1
			c-10.2,21.4-28.8,37.1-28.8,37.1c-18.8,15.8-45.3,24.3-45.3,24.3L290.5,129.6z"/>
	</g>
</g>
</svg>
