<?xml version="1.0" encoding="utf-8"?>
<!-- Generator: Adobe Illustrator 27.0.0, SVG Export Plug-In . SVG Version: 6.00 Build 0)  -->
<svg version="1.1" id="图层_1" xmlns="http://www.w3.org/2000/svg" xmlns:xlink="http://www.w3.org/1999/xlink" x="0px" y="0px"
	 viewBox="0 0 406 467" style="enable-background:new 0 0 406 467;" xml:space="preserve">
<style type="text/css">
	.st0{clip-path:url(#SVGID_00000082356917504170467480000010065275509715027855_);}
	.st1{fill:#11AB51;}
	.st2{fill:#171717;}
	.st3{fill:#FFFFFF;}
	.st4{fill-rule:evenodd;clip-rule:evenodd;fill:#171717;}
</style>
<g>
	<defs>
		<rect id="SVGID_1_" width="406" height="467"/>
	</defs>
	<clipPath id="SVGID_00000034087879818924779970000005537560666825261729_">
		<use xlink:href="#SVGID_1_"  style="overflow:visible;"/>
	</clipPath>
	<g id="Label_Community_Edition_" style="clip-path:url(#SVGID_00000034087879818924779970000005537560666825261729_);">
		<path id="Path_12980" class="st1" d="M0,116.8v233.5L202.2,467l202.2-116.8V116.8L202.2,0L0,116.8z"/>
		<g id="Group_12901" transform="translate(13.753 234.667)">
			<path id="Path_12981" class="st2" d="M376.9,109.2L189.1,218.3L0,109.2L187.8,0L376.9,109.2z"/>
		</g>
		<path id="Path_13556" class="st3" d="M120.7,357.9h-16.2c-2.2,0-3-0.9-3-3.5v-9.2h17v-5.8h-17v-7.3c0-2.6,0.8-3.5,3-3.5h16.2
			l0.4-5.8c-5.5-0.5-12.2-0.5-18.2-0.5c-5.4,0-8.8,3-8.9,7.9v25.9c0.1,4.9,3.4,7.9,8.9,7.9c6.1,0,12.8,0,18.2-0.5L120.7,357.9z
			 M128.3,364c4.6,0.3,9.5,0.5,15.5,0.5c12.4,0,16.9-5,16.9-21.2c0-16.2-4.5-21.2-16.9-21.2c-6.1,0-10.9,0.2-15.5,0.5V364z
			 M135.8,328.4c2.4,0,4.9-0.1,8-0.1c6.8,0,9,3.6,9,15c0,11.4-2.2,14.9-9,14.9c-2.9,0-5.6-0.1-8-0.1V328.4z M176.1,364v-41.4h-7.5
			V364H176.1z M215,329v-6.4h-33v6.4h12.7v35h7.6v-35H215z M228.4,364v-41.4h-7.5V364H228.4z M253.2,321.8c-12.6,0-17,5-17,21.5
			s4.4,21.5,17,21.5c12.7,0,17.1-5,17.1-21.5S265.9,321.8,253.2,321.8z M253.2,328.2c7,0,9.2,3.5,9.2,15.1c0,11.5-2.2,15.1-9.2,15.1
			c-7,0-9.1-3.5-9.1-15.1C244.1,331.8,246.2,328.2,253.2,328.2z M311.8,322.6h-7.3v26.8c0,2.2,0.1,4.4,0.3,6.7H304
			c-0.9-2.2-2.1-4.7-2.9-6.5l-11.3-24.7c-0.7-1.6-1.5-2.3-3.1-2.3h-5.8c-1.4-0.2-2.6,0.8-2.8,2.2c0,0.2,0,0.4,0,0.6V364h7.4v-27.6
			c0-2.1-0.1-4.2-0.4-6.2h0.7c0.6,2.1,1.4,4.2,2.5,6.2l11.6,25.4c0.7,1.6,1.5,2.3,3.1,2.3h5.9c1.4,0.2,2.6-0.8,2.8-2.1
			c0-0.2,0-0.4,0-0.6V322.6z"/>
		<g transform="translate(49.531982421875 0)  rotate(0)">
			<path id="文本_1" class="st4" d="M10.5,228.3c-3.3,0-6.2-1.7-6.2-1.7c-2.8-1.7-4.5-4.5-4.5-4.5c-1.7-2.8-1.7-6.2-1.7-6.2v-25.5
				c0-3.3,1.7-6.1,1.7-6.1c1.7-2.8,4.5-4.5,4.5-4.5c2.8-1.7,6.2-1.7,6.2-1.7h5.1c3.3,0,6.2,1.7,6.2,1.7c2.8,1.7,4.5,4.5,4.5,4.5
				c1.7,2.8,1.7,6.1,1.7,6.1v1.6h-5.6v-1.6c0-2.7-2-4.7-2-4.7c-1.9-1.9-4.7-1.9-4.7-1.9h-5.1c-2.8,0-4.7,1.9-4.7,1.9
				c-1.9,2-1.9,4.7-1.9,4.7V216c0,2.7,1.9,4.7,1.9,4.7c1.9,2,4.7,2,4.7,2h5.1c2.7,0,4.7-2,4.7-2c2-2,2-4.7,2-4.7v-10.7H10.5v-5.6
				h17.4V216c0,3.3-1.7,6.2-1.7,6.2c-1.7,2.8-4.5,4.5-4.5,4.5c-2.8,1.7-6.2,1.7-6.2,1.7H10.5z M34.5,190.4h5.6v5.8
				c2.8-2.7,6.3-4.3,6.3-4.3c3.5-1.5,7.5-1.5,7.5-1.5v5.6c-3.7,0-6.9,1.9-6.9,1.9c-3.2,1.9-5.1,5.1-5.1,5.1
				c-1.9,3.2-1.9,6.9-1.9,6.9v18.4h-5.6L34.5,190.4z M70.8,228.3c-3.3,0-6.2-1.7-6.2-1.7c-2.8-1.7-4.5-4.5-4.5-4.5
				c-1.7-2.8-1.7-6.2-1.7-6.2v-13.3c0-3.3,1.7-6.2,1.7-6.2c1.7-2.8,4.5-4.5,4.5-4.5c2.8-1.7,6.2-1.7,6.2-1.7h2
				c3.4,0,6.2,1.7,6.2,1.7c2.8,1.7,4.5,4.5,4.5,4.5c1.7,2.8,1.7,6.2,1.7,6.2v8.6H64.1v4.7c0,2.7,2,4.7,2,4.7c2,2,4.8,2,4.8,2h2
				c2.8,0,4.7-2,4.7-2c1.9-2,1.9-4.7,1.9-4.7h5.7c0,3.3-1.7,6.2-1.7,6.2c-1.7,2.8-4.5,4.5-4.5,4.5c-2.8,1.7-6.2,1.7-6.2,1.7H70.8z
				 M79.5,202.7c0-2.8-1.9-4.8-1.9-4.8c-1.9-1.9-4.7-1.9-4.7-1.9h-2c-2.8,0-4.8,1.9-4.8,1.9c-2,2-2,4.8-2,4.8v3.1h15.4V202.7z
				 M103.3,228.3c-3.4,0-6.2-1.7-6.2-1.7c-2.8-1.7-4.5-4.5-4.5-4.5c-1.7-2.8-1.7-6.2-1.7-6.2v-13.3c0-3.3,1.7-6.2,1.7-6.2
				c1.7-2.8,4.5-4.5,4.5-4.5c2.8-1.7,6.2-1.7,6.2-1.7h2c3.4,0,6.2,1.7,6.2,1.7c2.8,1.7,4.5,4.5,4.5,4.5c1.7,2.8,1.7,6.2,1.7,6.2v8.6
				h-21v4.7c0,2.7,2,4.7,2,4.7c1.9,2,4.8,2,4.8,2h2c2.8,0,4.8-2,4.8-2c1.9-2,1.9-4.7,1.9-4.7h5.6c0,3.3-1.7,6.2-1.7,6.2
				c-1.7,2.8-4.5,4.5-4.5,4.5c-2.8,1.7-6.2,1.7-6.2,1.7H103.3z M111.9,202.7c0-2.8-1.9-4.8-1.9-4.8c-1.9-1.9-4.8-1.9-4.8-1.9h-2
				c-2.8,0-4.8,1.9-4.8,1.9c-2,2-2,4.8-2,4.8v3.1h15.4V202.7z M123.3,190.4h5.6v4.9c3-4.9,8.2-4.9,8.2-4.9h0.5
				c3.4,0,6.2,1.7,6.2,1.7c2.8,1.7,4.5,4.5,4.5,4.5c1.7,2.8,1.7,6.2,1.7,6.2v25.6h-5.6v-25.6c0-2.8-2-4.8-2-4.8
				c-1.9-1.9-4.7-1.9-4.7-1.9h-2c-2.8,0-4.8,1.9-4.8,1.9c-1.9,2-1.9,4.8-1.9,4.8v25.6h-5.6L123.3,190.4z M182.5,228.3
				c-3.4,0-6.2-1.7-6.2-1.7c-2.8-1.7-4.5-4.5-4.5-4.5c-1.7-2.8-1.7-6.2-1.7-6.2v-25.5c0-3.3,1.7-6.1,1.7-6.1
				c1.7-2.8,4.5-4.5,4.5-4.5c2.8-1.7,6.2-1.7,6.2-1.7h5.1c3.3,0,6.2,1.7,6.2,1.7c2.8,1.7,4.5,4.5,4.5,4.5c1.6,2.8,1.6,6.1,1.6,6.1
				v1.6h-5.6v-1.6c0-2.7-2-4.7-2-4.7c-2-1.9-4.7-1.9-4.7-1.9h-5.1c-2.8,0-4.8,1.9-4.8,1.9c-1.9,2-1.9,4.7-1.9,4.7V216
				c0,2.7,1.9,4.7,1.9,4.7c1.9,2,4.8,2,4.8,2h5.1c2.7,0,4.7-2,4.7-2c2-2,2-4.7,2-4.7v-10.7h-11.8v-5.6h17.3V216
				c0,3.3-1.6,6.2-1.6,6.2c-1.7,2.8-4.5,4.5-4.5,4.5c-2.8,1.7-6.2,1.7-6.2,1.7H182.5z M208.2,190.4h5.6v37.9h-5.6V190.4z
				 M208.2,177.1h5.6v7.1h-5.6V177.1z M233.2,228.3c-3,0-5.4-1.4-5.4-1.4c-2.5-1.4-3.9-3.9-3.9-3.9c-1.5-2.5-1.5-5.4-1.5-5.4V215
				c0-2.8,1.4-5.2,1.4-5.2c1.4-2.3,3.8-3.7,3.8-3.7c2.4-1.3,5.1-1.3,5.1-1.3h6.6c2.1,0,4.1,0.9,4.1,0.9v-3c0-2.8-1.9-4.8-1.9-4.8
				c-1.9-1.9-4.8-1.9-4.8-1.9h-2c-2.8,0-4.7,1.9-4.7,1.9c-2,2-2,4.7-2,4.7h-5.6c0-3.3,1.7-6.1,1.7-6.1c1.7-2.8,4.5-4.5,4.5-4.5
				c2.8-1.7,6.2-1.7,6.2-1.7h2c3.4,0,6.2,1.7,6.2,1.7c2.8,1.7,4.5,4.5,4.5,4.5c1.7,2.8,1.7,6.2,1.7,6.2v25.6h-5.6v-5.6
				c0,1-1.6,2.3-1.6,2.3c-1.5,1.3-3.6,2.3-3.6,2.3c-2.1,1-3.5,1-3.5,1L233.2,228.3z M229.6,221.1c1.6,1.6,3.7,1.6,3.7,1.6h2
				c2.3,0,4.1-1.1,4.1-1.1c1.9-1.1,3-3,3-3c1.1-1.9,1.1-4.1,1.1-4.1v-0.1c0-1.7-1.2-2.9-1.2-2.9c-1.2-1.2-2.8-1.2-2.8-1.2h-6.6
				c-2,0-3.3,1.3-3.3,1.3c-1.3,1.4-1.3,3.3-1.3,3.3v2.5C228.1,219.6,229.6,221.1,229.6,221.1z M254.8,190.4h5.6v4.9
				c3-4.9,8.2-4.9,8.2-4.9h0.5c3.4,0,6.2,1.7,6.2,1.7c2.8,1.7,4.5,4.5,4.5,4.5c1.7,2.8,1.7,6.2,1.7,6.2v25.6h-5.7v-25.6
				c0-2.8-1.9-4.8-1.9-4.8c-1.9-1.9-4.7-1.9-4.7-1.9h-2c-2.8,0-4.8,1.9-4.8,1.9c-1.9,2-1.9,4.8-1.9,4.8v25.6h-5.6L254.8,190.4z
				 M305.1,228.3c-3.1,0-5.6-1.5-5.6-1.5c-2.6-1.6-4.1-4.1-4.1-4.1c-1.5-2.6-1.5-5.6-1.5-5.6v-21h-6.6v-5.6h6.6v-10.2h5.6v10.2h9.2
				v5.6h-9.2v19.7c0,1.8,0.9,3.4,0.9,3.4c0.9,1.6,2.5,2.5,2.5,2.5c1.6,1,3.5,1,3.5,1h2.3v5.6H305.1z"/>
			<path id="文本_1_00000125570107562385205090000010588083015989793682_" class="st4" d="M37.1,155.3l24.2-2.6v10.4l-24.2,2.6
				V155.3z M47,93.9h9.9l-8.7,22.9l2.7,1.6l3.8-10.2H64l-10.6,28.6h7.4v10.4H38.3l7.1-19.3l-9.2-5.2L47,93.9z M62.6,155.1l18.8-10.9
				v-15.1H63.1v-9h32.5v-3.9H68V108h27.5v-4.4h-30v-9h40.4v24.6h4.3v9.9H91.8v15l18.9,11v11.1l-18.9-11v11.4H81.4v-11.3l-18.8,10.9
				V155.1z M73.7,131.6l4.4,13.7h-9.6l-4.5-13.7H73.7z M99.7,131.6h9.8l-4.7,13.7h-9.6L99.7,131.6z M122.8,95.6h66.8v10.2h-56.4v8.2
				h51.1v31.5h-51.1v9h56.4v10.2h-66.8L122.8,95.6z M174,124.1h-40.8v11.2H174V124.1z M196.8,155.2c14.9-5.8,23.2-17.1,23.2-17.1
				c8.3-11.2,8.3-27.3,8.3-27.3l-0.1-17.1h11.1v17.1c0,16.2,8.3,27.3,8.3,27.3c8.3,11.2,23.1,17.1,23.1,17.1v12
				c-13.2-4.2-22.6-12.1-22.6-12.1c-9.4-7.9-14.4-18.5-14.4-18.5c-5.1,10.7-14.4,18.5-14.4,18.5c-9.4,7.9-22.6,12.1-22.6,12.1
				L196.8,155.2z"/>
		</g>
	</g>
</g>
</svg>
